# xmcd
#
# Track frame offsets:
#	150
#	16767
#	32980
#	48125
#	66657
#	81297
#	93212
#	107000
#	125235
#	142445
#
# Disc length: 2127
#
# Revision: 2
# Processed by: cddbd v1.5.2PL0 Copyright (c) Steve Scherf et al.
# Submitted via: Broken Cross Disk Manager 3.94.2201
#
DISCID=8f084d0a
DTITLE=Brack John - Hard Times
DYEAR=1987
DGENRE=
TTITLE0=When The Night Comes
TTITLE1=We Love The Same Girl (With Bobby Bare)
TTITLE2=Cause You Still Love Me
TTITLE3=The Hard Times
TTITLE4=Love Feels Different
TTITLE5=Why Can`t You Be On Time
TTITLE6=Fightin`For Sweet Love
TTITLE7=The Wonder Of My Life (With Billie Jo Spears)
TTITLE8=Hold On The Me
TTITLE9=I`d Like To Know
EXTD=
EXTT0=
EXTT1=
EXTT2=
EXTT3=
EXTT4=
EXTT5=
EXTT6=
EXTT7=
EXTT8=
EXTT9=
PLAYORDER=
